<?xml version="1.0" encoding="utf-8"?>
<!-- Generator: Adobe Illustrator 19.0.0, SVG Export Plug-In . SVG Version: 6.00 Build 0)  -->
<svg version="1.1" id="Layer_1" xmlns="http://www.w3.org/2000/svg" xmlns:xlink="http://www.w3.org/1999/xlink" x="0px" y="0px"
	 viewBox="0 0 300 300" style="enable-background:new 0 0 300 300;" xml:space="preserve">
<style type="text/css">
	.st0{fill:#299FD6;}
	.st1{fill:#212121;}
</style>
<g id="XMLID_171_">
	<circle id="XMLID_172_" class="st0" cx="150.3" cy="149.9" r="125"/>
	<g id="Rocket_1_">
		<g id="XMLID_174_">
			<path id="XMLID_175_" class="st1" d="M233.8,197.3c-0.9-1.7-2-3.4-3.7-5.2L191,148.8V76.7c0-21.3-16.8-60.6-40.6-60.6h-0.7
				c-23.9,0-40.6,39.3-40.6,60.6v72.1l-39.1,43.3c-1.7,1.8-2.8,3.5-3.7,5.2c-1.4,3-2.2,6.3-2.2,9.6V218c0,7.8,6.4,14.2,14.2,14.2
				H109v3.7c0,7,5.7,12.6,12.6,12.6h3.7v11.1c0,3.3,2.7,6.1,6.1,6.1c3.4,0,6.1-2.7,6.1-6.1v-11.1h6.5v5.2c0,3.4,2.7,6.1,6.1,6.1
				c3.4,0,6.1-2.7,6.1-6.1v-5.2h6.5v11.1c0,3.3,2.7,6.1,6.1,6.1s6.1-2.7,6.1-6.1v-11.1h3.7c6.9,0,12.6-5.6,12.6-12.6v-3.7h30.8
				c7.8,0,14.2-6.4,14.2-14.2v-11.1C236,203.5,235.2,200.2,233.8,197.3z M109,220H78.2c-1.1,0-2.1-0.9-2.1-2.1v-11.1
				c0-1.5,0.3-3,1-4.3c0.3-0.7,0.9-1.4,1.7-2.4l30.2-33.3V220z M143.9,236.4h-22.3c-0.3,0-0.5-0.2-0.5-0.5v-3.7h22.8V236.4z
				 M178.8,235.9c0,0.3-0.2,0.5-0.5,0.5h-22.3v-4.2h22.8V235.9z M178.8,220h-22.8v-15.7c0-3.3-2.7-6.1-6.1-6.1
				c-3.3,0-6.1,2.7-6.1,6.1V220h-22.8v-31.5h57.7V220z M178.8,176.4h-57.7v-31.5h57.7V176.4z M178.8,132.8h-57.7v-31.5h57.7V132.8z
				 M178.8,89.2h-57.7V76.7c0-17.4,14.4-48.5,28.5-48.5h0.7c14.1,0,28.5,31.1,28.5,48.5V89.2z M223.8,218c0,1.1-0.9,2.1-2.1,2.1H191
				v-53.2l30.2,33.3c0.8,0.9,1.4,1.7,1.7,2.4c0.6,1.3,1,2.8,1,4.3V218z"/>
		</g>
		<g id="XMLID_186_">
			<path id="XMLID_187_" class="st1" d="M156.1,272.3v5.6c0,3.3-2.7,6.1-6.1,6.1c-3.3,0-6.1-2.7-6.1-6.1v-5.6c0-3.4,2.7-6.1,6.1-6.1
				C153.3,266.2,156.1,268.9,156.1,272.3z"/>
		</g>
		<g id="XMLID_188_">
			<path id="XMLID_189_" class="st1" d="M167.9,77.6c-3.1,1.2-6.6-0.5-7.8-3.6c-0.6-1.7-3.1-7.1-9.9-7.1c-6.9,0-9.6,5.5-10.3,7.2
				c-0.9,2.4-3.2,3.9-5.7,3.9c-0.7,0-1.5-0.1-2.2-0.4c-3.1-1.2-4.7-4.7-3.5-7.8c2.8-7.3,9.9-15,21.6-15c11.7,0,18.7,7.8,21.3,15.1
				C172.6,72.9,171,76.4,167.9,77.6z"/>
		</g>
	</g>
</g>
</svg>
