<?xml version="1.0" encoding="utf-8"?>
<!-- Generator: Adobe Illustrator 19.0.0, SVG Export Plug-In . SVG Version: 6.00 Build 0)  -->
<svg version="1.1" id="Layer_1" xmlns="http://www.w3.org/2000/svg" xmlns:xlink="http://www.w3.org/1999/xlink" x="0px" y="0px"
	 viewBox="0 0 300 300" style="enable-background:new 0 0 300 300;" xml:space="preserve">
<style type="text/css">
	.st0{fill:#872783;}
	.st1{fill:#212121;}
</style>
<g id="XMLID_95_">
	<circle id="XMLID_108_" class="st0" cx="150.3" cy="149.9" r="125"/>
	<g id="Satellite_1_">
		<g id="XMLID_97_">
			<path id="XMLID_98_" class="st1" d="M269.3,223.1l-20.4-20.4l-40.9-40.9c-2.3-2.3-6.3-2.3-8.6,0l-8,8l-4.7-4.7l9.2-9.2l14.2-14.2
				c2.4-2.4,2.4-6.2,0-8.6l-2.6-2.6c0.4,0,0.9,0,1.3,0c3.1,0,6.2-0.4,9.1-1.1c0.5-0.1,0.9-0.3,1.4-0.4c0.3-0.1,0.7-0.2,1-0.3
				c0.1,0,0.2-0.1,0.3-0.1c1.5-0.5,2.9-1.1,4.2-1.7c0.7-0.3,1.3-0.6,1.9-1c0.9-0.5,1.9-1,2.7-1.5c0.9-0.6,1.7-1.1,2.5-1.7
				c-0.3,0.2-0.6,0.5-1,0.7c0.6-0.4,1.2-0.9,1.8-1.3c0.3-0.2,0.6-0.5,0.9-0.7c0.3-0.2,0.5-0.4,0.8-0.6c0.3-0.3,0.6-0.6,0.9-0.9
				c0.3-0.3,0.6-0.6,0.9-0.8c2.4-2.4,2.4-6.2,0-8.6l-19.1-19.1l4.6-4.6c0.2,0,0.3,0,0.5,0c2.4,0,4.7-0.9,6.5-2.7
				c3.5-3.5,3.5-9.3,0-12.9c-1.7-1.7-4-2.7-6.4-2.7c-2.4,0-4.7,0.9-6.5,2.7c-1.9,1.9-2.8,4.4-2.6,6.9l-4.6,4.6l-19.1-19.1
				c-0.3-0.3-0.6-0.6-0.9-0.8c-0.2-0.2-0.5-0.3-0.8-0.4c0,0,0,0,0,0c-1.1-0.4-2.3-0.6-3.4-0.4h-0.1c-0.1,0-0.2,0-0.4,0.1
				c-0.2,0-0.3,0.1-0.4,0.1c-0.3,0.1-0.6,0.2-0.8,0.3c-0.3,0.1-0.5,0.3-0.8,0.4c-0.3,0.2-0.7,0.5-0.9,0.8c-0.4,0.4-0.8,0.8-1.1,1.2
				c-5.7,6.3-10.2,16.3-10.2,27.1v0.4l-2.6-2.6c-2.4-2.4-6.2-2.4-8.6,0l-14.2,14.2l-9.1,9.1l-4.7-4.7l7.9-7.9
				c1.1-1.1,1.8-2.7,1.8-4.3c0-1.6-0.6-3.2-1.8-4.3L118,71.8c0,0-0.1-0.1-0.1-0.2L97.3,51.1c0,0,0,0-0.1-0.1L76.9,30.7
				c-2.4-2.4-6.2-2.4-8.6,0L30.7,68.4c-2.4,2.4-2.4,6.2,0,8.6l20.4,20.4l40.9,40.9c1.1,1.1,2.7,1.8,4.3,1.8c1.6,0,3.2-0.6,4.3-1.8
				l7.9-7.9l4.7,4.7l-9.2,9.2c-0.1,0.1-0.1,0.1-0.2,0.2l-14.2,14.2c-1.2,1.2-1.8,2.7-1.8,4.3c0,0.2,0,0.4,0,0.7
				c0,0.2,0.1,0.4,0.1,0.7c0,0.2,0.1,0.3,0.1,0.4c0.3,0.9,0.8,1.8,1.5,2.5l43.1,43.1c1.1,1.1,2.7,1.8,4.3,1.8c1.6,0,3.2-0.6,4.3-1.8
				l14.2-14.2l9.2-9.2l4.7,4.7l-7.8,7.7c-2.4,2.4-2.4,6.2,0,8.6l40.9,40.9l20.4,20.4c1.1,1.1,2.7,1.8,4.3,1.8c1.6,0,3.2-0.6,4.3-1.8
				l37.6-37.6C271.7,229.3,271.7,225.4,269.3,223.1z M181.8,88.1c0.4-3.9,1.8-7.6,3.8-10.9l0.1,0.1l18.5,18.5l18.5,18.5l0.1,0.1
				c-2.4,1.5-5,2.6-7.8,3.3c-1,0.3-2,0.5-3.1,0.7c-6.8,1.1-13.3-0.6-19.1-5.2c-0.1-0.1-0.3-0.2-0.4-0.3c-0.4-0.3-0.8-0.6-1.1-0.9
				c-0.4-0.3-0.8-0.7-1.2-1.1c-0.1-0.1-0.2-0.2-0.3-0.2l-0.5-0.5c-0.4-0.4-0.7-0.7-1.1-1.1c-0.3-0.3-0.6-0.6-0.8-0.9
				c-0.5-0.6-2.6-3.6-3.1-4.5c-0.2-0.3-0.3-0.6-0.5-0.9c-0.3-0.6-0.6-1.2-0.8-1.8c-0.1-0.3-0.2-0.6-0.3-0.9
				c-0.3-0.8-0.5-1.6-0.7-2.4c-0.1-0.3-0.2-0.6-0.2-0.9c-0.1-0.3-0.1-0.6-0.2-0.9c-0.1-0.3-0.1-0.6-0.1-0.9
				C181.4,92.4,181.5,90.2,181.8,88.1z M162.6,102.8l34.6,34.6l-5.6,5.6L157,108.4L162.6,102.8z M43.6,72.7l29.1-29.1l11.8,11.8
				L55.4,84.5L43.6,72.7z M64,93.1L93,64l12,12L75.9,105L64,93.1z M104.3,117.5l-7.9,7.9l-11.8-11.8l29.1-29.1l11.8,11.8l-7.9,7.9
				L104.3,117.5z M126.5,121.8l-4.7,4.7l-4.7-4.7l4.7-4.7L126.5,121.8z M137.1,197.4l-34.6-34.6l5.6-5.6l34.6,34.6L137.1,197.4z
				 M160.5,174l-9.2,9.2l-34.6-34.6l9.2-9.2c0.1-0.1,0.2-0.1,0.2-0.2l13.3-13.3l9.1-9.1l34.6,34.6l-9.2,9.2L160.5,174z M178.1,173.6
				l4.7,4.7l-4.7,4.7l-4.7-4.7L178.1,173.6z M174.6,203.6l7.8-7.8l13.3-13.3l8-8l11.8,11.8l-29.1,29.1L174.6,203.6z M195,224
				l29.1-29.1l12,12L207,236L195,224z M227.4,256.4l-11.8-11.8l29.1-29.1l11.8,11.8L227.4,256.4z"/>
		</g>
		<g id="XMLID_117_">
			<path id="XMLID_118_" class="st1" d="M241.4,92.7c-0.9,0-1.7-0.2-2.6-0.6c-3-1.4-4.4-5-2.9-8.1c1-2.3,3.9-10.1-2.8-16.9
				c-6.9-6.9-14.9-4-17.2-3c-3.1,1.4-6.6,0-8-3.1c-1.4-3.1,0-6.6,3.1-8c8.4-3.8,20.9-4.3,30.7,5.5c9.8,9.8,9.1,22.2,5.3,30.6
				C245.9,91.4,243.7,92.7,241.4,92.7z"/>
		</g>
		<g id="XMLID_119_">
			<path id="XMLID_120_" class="st1" d="M208.1,45.3c-2.3,0-4.5-1.3-5.5-3.6c-1.4-3.1,0-6.6,3.1-8c4.8-2.1,10.5-3.4,16.3-3.5
				c3.3,0,6.1,2.5,6.2,5.9c0.1,3.3-2.5,6.1-5.9,6.2c-4.3,0.1-8.3,1-11.7,2.5C209.8,45.2,209,45.3,208.1,45.3z"/>
		</g>
		<g id="XMLID_121_">
			<path id="XMLID_122_" class="st1" d="M260.7,97.9c-0.9,0-1.7-0.2-2.6-0.6c-3-1.4-4.4-5-2.9-8.1c4.7-10.2,3.8-26.2-7-37.1
				c-2.9-2.9-6.3-5.2-10-6.9c-3.1-1.4-4.4-4.9-3.1-8c1.4-3.1,4.9-4.4,8-3.1c5.1,2.3,9.8,5.4,13.7,9.4c14.8,14.8,16,36.7,9.5,50.7
				C265.2,96.6,263,97.9,260.7,97.9z"/>
		</g>
	</g>
</g>
</svg>
