<?xml version="1.0" encoding="utf-8"?>
<!-- Generator: Adobe Illustrator 19.0.0, SVG Export Plug-In . SVG Version: 6.00 Build 0)  -->
<svg version="1.1" id="Layer_1" xmlns="http://www.w3.org/2000/svg" xmlns:xlink="http://www.w3.org/1999/xlink" x="0px" y="0px"
	 viewBox="0 0 300 300" style="enable-background:new 0 0 300 300;" xml:space="preserve">
<style type="text/css">
	.st0{fill:#80BA3F;}
	.st1{fill:#212121;}
	.st2{fill:#212121;stroke:#212121;stroke-width:3.5;stroke-linecap:round;stroke-linejoin:round;stroke-miterlimit:10;}
</style>
<g id="XMLID_127_">
	<circle id="XMLID_128_" class="st0" cx="150.3" cy="149.7" r="125"/>
	<g id="UFO_1_">
		<g id="XMLID_130_">
			<path id="XMLID_131_" class="st1" d="M56.9,234.9l-1.7,1.7c-1.2,1.2-2.7,1.8-4.3,1.8c-1.5,0-3.1-0.6-4.3-1.8
				c-2.4-2.4-2.4-6.2,0-8.6l1.7-1.8c2.4-2.4,6.2-2.4,8.6,0C59.3,228.7,59.3,232.5,56.9,234.9z"/>
		</g>
		<g id="XMLID_132_">
			<path id="XMLID_133_" class="st1" d="M80.1,211.7l-9,9c-1.2,1.2-2.8,1.8-4.3,1.8c-1.5,0-3.1-0.6-4.3-1.8c-2.4-2.4-2.4-6.2,0-8.6
				l9-9c2.4-2.4,6.2-2.4,8.6,0C82.5,205.5,82.5,209.4,80.1,211.7z"/>
		</g>
		<g id="XMLID_134_">
			<path id="XMLID_135_" class="st1" d="M253.4,237c-1.2,1.2-2.7,1.8-4.3,1.8s-3.1-0.6-4.3-1.8l-1.7-1.8c-2.4-2.4-2.4-6.2,0-8.6
				c2.4-2.4,6.2-2.4,8.6,0l1.7,1.8C255.8,230.8,255.8,234.6,253.4,237z"/>
		</g>
		<g id="XMLID_136_">
			<path id="XMLID_137_" class="st1" d="M237.2,220.8c-1.2,1.2-2.7,1.8-4.3,1.8c-1.5,0-3.1-0.6-4.3-1.8l-8.7-8.7
				c-2.4-2.4-2.4-6.2,0-8.6c2.4-2.4,6.2-2.4,8.6,0l8.7,8.7C239.6,214.5,239.6,218.4,237.2,220.8z"/>
		</g>
		<g id="XMLID_138_">
			<path id="XMLID_139_" class="st1" d="M203.2,120.6v-6.9c0-28.9-23.5-52.5-52.5-52.5h-0.9c-28.9,0-52.5,23.5-52.5,52.5v6.8
				c-26.6,3.8-47.1,26.7-47.1,54.4v0.5c0,5.3,4.3,9.7,9.7,9.7h37.4v1.7c0,7.9,6.4,14.4,14.4,14.4H127v0.1c0,3.4,2.7,6.1,6.1,6.1
				c3.4,0,6.1-2.7,6.1-6.1v-0.1h5.1v3.7c0,3.4,2.7,6.1,6.1,6.1c3.4,0,6.1-2.7,6.1-6v-3.7h5.1v0.1c0,3.4,2.7,6.1,6.1,6.1
				c3.4,0,6.1-2.7,6.1-6.1v-0.1h15.3c7.9,0,14.4-6.4,14.4-14.4v-1.7h36.9c5.3,0,9.7-4.3,9.7-9.7v-0.5
				C249.8,147.4,229.5,124.6,203.2,120.6z M109.5,113.7c0-22.3,18.1-40.3,40.3-40.3h0.9c22.3,0,40.3,18.1,40.3,40.3v6.2h-81.6V113.7
				z M111.7,189c-1.2,0-2.2-1-2.2-2.2v-1.7h81.6v1.7c0,1.2-1,2.2-2.2,2.2h-38.5c0,0,0,0,0,0 M62.4,173c0.9-20.1,15.7-36.6,35-40.2
				c2-0.4,4-0.6,6.1-0.7c0.6,0,1.1,0,1.7,0h89.8c0.8,0,1.5,0,2.3,0c2.1,0.1,4.1,0.4,6.1,0.8c19,3.8,33.6,20.2,34.4,40.1H62.4z"/>
		</g>
		<g id="XMLID_144_">
			<path id="XMLID_145_" class="st1" d="M172,93.3c-1.2,1.5-3,2.2-4.7,2.2c-1.3,0-2.7-0.4-3.8-1.3c-7-5.7-15.8-4.5-15.9-4.5
				c-3.3,0.5-6.4-1.8-6.9-5.1c-0.5-3.3,1.8-6.4,5.1-6.9c0.6-0.1,14.1-2.1,25.4,7C173.7,86.9,174.1,90.7,172,93.3z"/>
		</g>
		<g id="XMLID_146_">
			<path id="XMLID_149_" class="st1" d="M180.7,113.8c-0.4,0.1-0.8,0.1-1.2,0.1c-2.8,0-5.4-2-5.9-4.9c-0.3-1.5-0.7-2.3-1.1-3
				c-1.8-2.8-0.9-6.6,1.9-8.4c2.8-1.8,6.6-0.9,8.4,1.9c1.3,2.1,2.2,4.3,2.7,7.1C186.2,110,184,113.2,180.7,113.8z"/>
		</g>
		<circle id="XMLID_156_" class="st2" cx="114.7" cy="152.5" r="1.3"/>
		<circle id="XMLID_163_" class="st2" cx="185.1" cy="152.5" r="1.3"/>
		<circle id="XMLID_166_" class="st2" cx="150" cy="152.5" r="1.3"/>
	</g>
</g>
</svg>
