<?xml version="1.0" encoding="utf-8"?>
<!-- Generator: Adobe Illustrator 19.0.0, SVG Export Plug-In . SVG Version: 6.00 Build 0)  -->
<svg version="1.1" id="Layer_1" xmlns="http://www.w3.org/2000/svg" xmlns:xlink="http://www.w3.org/1999/xlink" x="0px" y="0px"
	 viewBox="0 0 300 300" style="enable-background:new 0 0 300 300;" xml:space="preserve">
<style type="text/css">
	.st0{fill:#9E9E9E;}
	.st1{stroke:#000000;stroke-width:1.5;}
</style>
<g id="XMLID_457_">
	<g id="XMLID_273_">
		<path id="XMLID_278_" class="st0" d="M260,136.8c-0.9-9.5-3-18.5-6.3-26.8c-1.6-4.2-3.5-8.2-5.6-12.1c-1.1-1.9-2.2-3.9-3.4-5.7
			l-1.8-2.8l-2-2.7c-8.2-11.1-17.7-20.4-28.8-27.8c-11.1-7.4-23.8-13.1-38.3-15.8c-7.2-1.4-14.2-1.9-21.2-1.8
			c-7,0.1-13.9,1-20.9,2.5c-14.1,2.8-28.4,8.7-41.2,18.1c-12.7,9.3-23.8,21.8-31.3,36.5c-0.4,0.8-1.1,1.9-1.7,3.2
			c-0.6,1.3-1.3,2.8-1.9,4.1c-1,2.8-1.7,5-0.9,4.8c-6,14.8-8.4,30.8-7.5,46.5c1,15.7,5.6,31.1,13.5,44.5c3.3,5.7,6.9,11.3,11,16.6
			c4.1,5.3,8.7,10.2,13.9,14.4c4.2,3.3,8.5,6.5,13,9.3c4.5,2.8,9.2,5.4,14,7.6c4.8,2.1,9.8,4.1,14.9,5.5c1.3,0.4,2.6,0.7,3.8,1
			l1.9,0.5c0.6,0.2,1.3,0.3,1.9,0.4l3.9,0.7l3.9,0.5c1.5,0.1,3.8,0,6,0.1c1.1,0,2.2-0.1,3.2-0.1c1,0,1.8,0,2.4,0
			c14.5,0.8,28.5-2.1,41.1-7.5c12.6-5.4,23.8-13.3,33.4-22.7c0.9-0.9,1.8-1.8,2.7-2.7c0.9-0.9,1.7-1.8,2.5-2.7
			c0.4-0.4,0.8-0.9,1.2-1.3c0.4-0.4,0.8-0.9,1.1-1.4c0.7-0.9,1.5-1.8,2.2-2.7c0.7-0.9,1.4-1.8,2.1-2.8c0.4-0.5,0.7-0.9,1.1-1.4
			c0.3-0.5,0.7-1,1-1.4c0.7-1,1.4-1.9,2-2.9c0.7-1,1.3-2,2-3.1c0.1-1,1.3-3.1,2.6-5.6c0.9-1.7,2.9-5.2,5-9.9
			c2.1-4.7,4.3-10.4,5.9-16.2c0.4-1.5,0.8-2.9,1.1-4.4c0.3-1.4,0.6-2.9,0.9-4.3c0.3-1.4,0.5-2.7,0.7-4c0.1-0.6,0.2-1.3,0.3-1.9
			c0.1-0.6,0.1-1.2,0.2-1.8c0.1-1.2,0.3-2.3,0.4-3.2c0.1-1,0.2-1.9,0.2-2.7c0.1-1.6,0.3-2.7,0.4-3.2c0.1-0.2,0.1,0.9,0,3.1
			c0,2.2-0.1,5.4-0.5,9.3c-0.8,7.8-2.9,18.3-6.8,28.3l-0.7,1.9c-0.3,0.6-0.5,1.2-0.8,1.8c-0.5,1.2-1.1,2.4-1.6,3.6
			c-1.2,2.4-2.3,4.7-3.6,6.8c-1.2,2.2-2.5,4.2-3.7,6.2c-0.6,1-1.3,1.9-1.9,2.8c-0.6,0.9-1.2,1.8-1.8,2.5c-4.7,6.4-8.4,10.1-8,10
			c0.2-0.2,1-0.9,2.2-2.1c0.6-0.6,1.2-1.4,2-2.3c0.8-0.9,1.6-1.8,2.4-2.9c3.5-4.3,7.6-10.3,11.1-16.7c3.5-6.5,6.2-13.4,8-19
			c1.7-5.6,2.6-9.9,2.9-11.1c-1.1,6.3-2.7,12.3-4.7,17.9c-0.5,1.4-0.9,2.8-1.5,4.1c-0.6,1.3-1.1,2.6-1.6,3.9c-1.2,2.5-2.3,5-3.6,7.4
			c-1.2,2.4-2.6,4.6-3.9,6.8c-0.7,1.1-1.4,2.1-2.1,3.1c-0.3,0.5-0.7,1-1,1.5c-0.3,0.5-0.7,1-1.1,1.5c-0.7,1-1.4,1.9-2.1,2.9
			c-0.7,0.9-1.5,1.8-2.2,2.7c-1.4,1.8-2.9,3.4-4.4,5c-5.8,6.3-11.7,11.2-17.1,15.1c-5.4,3.9-10.4,6.7-14.6,9c-2.2,1.1-4.1,2.1-6,2.8
			c-1.8,0.8-3.4,1.5-4.9,2.1c-1.5,0.6-2.8,1.1-3.9,1.5c-1.1,0.4-2.1,0.7-2.9,1c-1.6,0.5-2.4,0.8-2.7,0.9c-0.3,0.1,0.1,0.1,0.9-0.2
			c0.8-0.2,2.2-0.6,4-1.2c0.9-0.3,1.9-0.6,3-1c1.1-0.4,2.3-0.8,3.6-1.3c5-2,11.3-4.9,17.9-9c6.5-4,13.3-9.2,19.4-15.1
			c6.1-6,11.5-12.7,15.9-19.4c5.7-8.2,12.3-21.1,16.4-39.8c-0.3,1.4-0.5,3-0.9,4.7c-0.4,1.7-0.7,3.5-1.2,5.4
			c-1,3.8-2.1,7.8-3.5,11.6c-2.7,7.6-6.1,14.1-7.7,16.4c-3.4,5.5-6.1,9.3-8.4,12.2c-2.3,3-4.2,5.2-6.1,7.4c-1,1.1-2.1,2.2-3.3,3.4
			c-1.2,1.2-2.6,2.4-4.2,3.8c-3.3,2.7-7.4,6.1-13.8,10c-5.3,3.1-11.7,6.5-18.9,9.4c-7.2,2.9-15.1,5.3-23.2,6.7
			c-8,1.5-16.1,2.1-23.5,1.9c-7.4-0.1-14-1-19.2-2c1.4,0.2,3,0.3,4.8,0.5c1.8,0.2,3.8,0.3,5.9,0.4c4.2,0.2,9,0.1,13.8-0.1
			c9.7-0.6,19.9-2.5,27.6-4.3c-8.5,1.7-15.2,2.5-21,3.1c-1.5,0.1-2.9,0.2-4.2,0.3c-0.7,0.1-1.4,0.1-2,0.2c-0.7,0-1.3,0-2,0.1
			c-1.3,0.1-2.6,0.1-3.8,0.2c-1.3,0-2.5,0-3.8,0c-2.5,0.1-5.1-0.2-7.7-0.3c-1.3-0.1-2.7-0.3-4.1-0.4c-0.7-0.1-1.4-0.2-2.2-0.3
			c-0.7-0.1-1.5-0.3-2.2-0.4c-6-1.1-13.1-2.9-21.5-6.7c-3.1-1.4-6.8-3-10.6-5c-1.7-1.1-3.5-2.1-5.2-3.3c-0.9-0.6-1.7-1.2-2.7-1.8
			c-0.9-0.7-1.8-1.4-2.8-2.1c-12.2-8.9-22.2-19.3-30.1-31c-7.9-11.8-13.7-24.9-16.6-39.6c0.3,1.2,0.4,2.3,0.5,3.4
			c0,0.5,0.1,1.1,0.1,1.6c0.1,0.6,0.2,1.1,0.4,1.8c0.4,1.6,0.7,3.1,1.2,4.7c0.5,1.5,0.9,3,1.4,4.5c1.1,3,2.1,5.9,3.4,8.7
			c2.5,5.6,5.5,10.9,8.9,15.9c3.4,5,7.3,9.8,11.5,14.5c4.3,4.6,9.1,9.1,14.4,13.4c2,1.7,4.7,3.4,7.4,5c1.4,0.8,2.8,1.5,4.1,2.3
			c1.3,0.8,2.7,1.4,3.9,2.1c0.6,0.3,1.2,0.7,1.8,1c0.6,0.3,1.2,0.6,1.8,1c1.2,0.6,2.4,1.3,3.6,1.9c2.4,1.1,4.8,2.4,7.2,3.3
			c4.8,2.1,9.6,3.9,14.7,5.3c-10.3-2.2-21.2-6.2-31.3-12.1c-10.2-5.8-19.5-13.4-27.3-21.7c-0.8-0.8-1.7-1.7-2.6-2.6
			c-0.9-0.9-1.8-1.8-2.7-2.7c-0.9-0.9-1.7-1.8-2.5-2.6c-0.8-0.8-1.5-1.6-2.1-2.3c3.1,4.3,6.5,8.4,10.2,12.3c1.8,2,3.8,3.8,5.7,5.6
			c1,0.9,2,1.8,3,2.6l1.5,1.3c0.5,0.4,1,0.8,1.6,1.2c7.3,5.8,16,11.1,25.4,15c4.7,2.1,9.6,3.7,14.5,5.1c1.2,0.3,2.5,0.6,3.7,0.9
			c0.6,0.2,1.2,0.3,1.9,0.5l1.9,0.4c1.2,0.3,2.5,0.5,3.7,0.8c1.2,0.2,2.5,0.4,3.7,0.6c9.9,1.5,19.6,1.6,28.4,1
			c8.8-0.6,16.7-2,23.2-3.4c0.8-0.3,1.5-0.5,3-1c0.4-0.1,0.9-0.1,1.5-0.3c4.9-1.6,10.7-3.8,16-5.9c0,0-0.2,0.1-0.6,0.3
			c-0.4,0.2-0.9,0.4-1.5,0.7c-0.6,0.3-1.3,0.6-2.1,0.9c-0.8,0.3-1.6,0.7-2.4,1c-1.7,0.6-3.3,1.3-4.6,1.8c-1.3,0.4-2.1,0.7-2.1,0.7
			c-17.3,7.1-38.2,9.4-58.5,6c-20.4-3.3-40.1-12.4-56.2-25.1c-3.6-2.8-8.1-6.9-12-11.5c-1-1.1-2-2.3-2.9-3.4
			c-0.9-1.1-1.9-2.3-2.7-3.4c-0.9-1.1-1.7-2.2-2.5-3.2c-0.8-1.1-1.5-2-2.2-2.9c-4-5.4-7.5-11.2-10.5-17.3c-3-6.1-5.4-12.6-7.2-19.2
			c-1.8-6.6-3-13.4-3.6-20.2c-0.5-6.8-0.5-13.6,0.1-20.2c1.1-12,3.9-23.8,8.5-34.9c2.2-5.5,5-10.9,8.1-15.9c1.5-2.6,3.2-5,4.9-7.5
			c1.8-2.4,3.5-4.8,5.5-7c15.1-18.2,35.7-31.5,58-37.7c22.3-6.3,46.2-5.5,67.5,1.8c21.4,7.2,40.1,21,53.2,38.5
			c1.3,1.6,2.6,3.1,3.8,4.8c-0.4-0.8-0.8-1.6-1.3-2.3l0.8,1.2l0.8,1.2c0.5,0.8,1,1.6,1.5,2.4c3.2,4.6,6,9.4,8.3,14.5
			c2.3,5,4.1,10.2,5.4,15.5c0.4,2.2-0.1,0.3-1.1-2.5c-0.2-0.7-0.5-1.4-0.8-2.2c-0.3-0.7-0.6-1.5-0.9-2.2c-0.6-1.4-1.1-2.7-1.6-3.4
			c0.5,1.1,0.8,2.3,1.2,3.2c0.3,0.9,0.5,1.4,0.5,1.4s-0.4-0.3-0.8-0.7c0.4,0.9,0.6,1.6,0.8,2.2c0.1,0.7,0.2,1.3,0.3,1.9
			c-1.9-5.6-4.3-11.1-7.2-16.4c-2.9-5.2-6.2-10.3-9.9-15c-7.3-9.5-16.3-17.7-26.4-24.3c1,1,2.9,2.6,4.9,4.1c1,0.8,2,1.6,2.9,2.3
			c0.9,0.7,1.8,1.4,2.4,2c6.2,5,11.8,10.7,16,16.6c3.1,4,5.9,8.2,8.3,12.7l0.9,1.7c0.3,0.6,0.6,1.1,0.8,1.7c0.5,1.1,1.1,2.3,1.6,3.4
			c1,2.4,2,4.7,2.8,7.1c0.9,2.4,1.6,4.8,2.3,7.2c0.3,1.2,0.6,2.4,0.9,3.6l0.4,1.8l0.4,1.8c1.1,4.8,1.6,9.7,2,14.5
			c0,1.8,0.1,3.5,0,5.3c-0.1,1.7-0.2,3.5-0.3,5.2c-0.1,1.1-0.2,1.4-0.4,1c-0.1-0.2-0.1-0.5-0.2-1c-0.1-0.4-0.2-1-0.2-1.6
			c-0.2-1.3-0.2-2.9-0.4-4.6C260.2,140.4,260.1,138.5,260,136.8z M44.1,116.1c2.3-6.7,5.3-13,8.9-19.1c0.6-1.1,1.2-2.2,1.8-3.3
			c0.6-1.1,1.3-2.1,1.9-3.2c0.8-1.3,1.7-2.7,2.6-4.1c0.4-0.7,0.9-1.4,1.3-2.1c0.5-0.7,1-1.4,1.4-2.1c8.1-10.7,18-19.8,29.1-26.9
			c-5.7,3.3-11.3,7.3-16.7,12.1C69,72.2,63.7,77.9,58.9,85c3.1-4.6,6.3-8.9,9.9-12.7l1.3-1.5l1.4-1.4c0.9-0.9,1.8-1.9,2.8-2.8
			c1.9-1.7,3.8-3.5,5.8-5.1c7.9-6.6,16.6-11.7,25.6-15.6c4.5-1.9,9.1-3.6,13.8-4.9c2.3-0.7,4.7-1.2,7.1-1.7c1.2-0.3,2.4-0.4,3.6-0.7
			c1.2-0.2,2.4-0.5,3.6-0.6c2.4-0.3,4.8-0.7,7.2-0.8c1.2-0.1,2.4-0.2,3.6-0.3l3.6-0.1l1.8,0l1.8,0c1.2,0,2.4,0.1,3.6,0.1
			c1.2,0.1,2.4,0.2,3.6,0.2c1.2,0.1,2.4,0.1,3.6,0.3c5.9,0.4,11.7,1.5,17.5,2.9c2.9,0.7,5.8,1.6,8.6,2.4c1.4,0.5,2.8,1,4.3,1.5
			c1.4,0.5,2.8,1.1,4.2,1.7c7.9,3.2,15.3,7.2,22.1,11.9c-10.4-7.8-22.2-13.9-34.8-17.6c-6.3-1.9-12.7-3.2-19.3-4
			c-1.6-0.2-3.3-0.4-4.9-0.5l-4.9-0.3l-5,0c-1.7,0-3.3,0.1-5,0.2c-13.2,0.7-26.4,3.7-38.8,9c-12.3,5.3-23.8,12.8-33.7,22.2
			c-9.9,9.3-18.1,20.6-24.2,32.9c-3.1,6.2-5.6,12.7-7.5,19.4c-1.9,6.7-3.2,13.6-3.8,20.6c-0.7,7-0.7,14-0.2,21.1
			c0.6,7,1.8,14,3.7,20.9c3.7,13.7,10,26.8,18.5,38.5C38.4,189.4,32.6,150.5,44.1,116.1z M41.9,129c-2.5,14.1-2.3,28.6,0.5,42.4
			c1.8,9.4,4.9,18.7,9.1,27.5c4.3,8.7,9.5,16.8,15.4,23.8c5.9,7,12.5,12.9,18.9,17.5c6.5,4.7,12.9,8.1,18.5,10.4
			c-7.5-3.6-14.7-8.1-21.4-13.3c-6.7-5.3-12.8-11.4-18.2-18.2c-2.7-3.4-5.2-7-7.6-10.7c-1.1-1.9-2.3-3.8-3.3-5.7c-1-2-2.1-3.9-3-5.9
			c-3.8-8-6.7-16.5-8.5-25.4c0.4,2.1,0.9,4,1.2,5.6c0.4,1.6,0.8,3.1,1.2,4.3c0.3,1.2,0.6,2.2,0.9,3c0.3,0.8,0.5,1.4,0.6,1.8
			c0.6,1.7,0.2,0.4-1-3.2c-1-3.7-2.8-9.8-3.9-18c-0.1-1-0.3-2.1-0.4-3.2c-0.1-0.5-0.1-1.1-0.2-1.6c0-0.6-0.1-1.1-0.1-1.7
			c-0.1-1.1-0.2-2.3-0.2-3.5c-0.1-1.2-0.1-2.4-0.1-3.7c-0.2-5,0.1-10.4,0.8-16.1c0-0.5,0.1-1.4,0.2-2.4c0.1-0.5,0.1-1.1,0.2-1.7
			C41.6,130.4,41.8,129.7,41.9,129z"/>
		<path id="XMLID_277_" class="st0" d="M202.2,44.3c13.9,7.2,26.4,17.2,36,29.1c-3.3-4.8-6.5-9-11.6-13.9c-0.9-0.8-1.8-1.6-2.6-2.4
			c-0.9-0.8-1.9-1.5-2.8-2.3l-1.4-1.1l-1.5-1.1c-1-0.7-2-1.4-3-2.2c-1.1-0.7-2.1-1.3-3.2-2l-1.6-1l-1.7-0.9
			c-1.1-0.6-2.2-1.2-3.3-1.9c-1.1-0.6-2.3-1.1-3.4-1.7c-1.1-0.6-2.3-1.1-3.5-1.6c-1.2-0.5-2.4-1-3.6-1.5c-2.4-0.9-4.8-1.9-7.3-2.6
			c-4.9-1.6-9.9-2.8-14.9-3.8c-14.3-2.8-29.3-2.8-44.1,0.1c-14.8,2.9-29.1,8.9-42,17.6c-12.8,8.7-24,20-32.7,33.3
			c-8.6,13.3-14.7,28.4-17.4,44.3c-0.2,0.8-0.4,1.8-0.5,3c-0.2,1.2-0.3,2.5-0.5,3.9c-0.2,1.4-0.2,2.9-0.3,4.3c0,0.7-0.1,1.4-0.1,2.1
			c0,0.7,0,1.4,0,2c1.1-20.3,7.4-39.9,17.7-56.5c0.6-1.1,1.3-2.1,2-3.1l2.1-3l2.2-2.9l1.1-1.5l1.2-1.4l2.3-2.8
			c0.8-0.9,1.6-1.8,2.4-2.7c1.6-1.8,3.4-3.5,5.1-5.2c6.9-6.7,14.7-12.5,23-17.3c8.3-4.8,17.1-8.4,26.2-11.1c9.1-2.6,18.5-4,27.8-4.2
			C157.6,32,167,33,176.1,35c4.6,0.9,9,2.3,13.4,3.8c1.1,0.4,2.2,0.8,3.2,1.2c1.1,0.4,2.2,0.8,3.2,1.3
			C198,42.3,200.2,43.2,202.2,44.3z"/>
		<path id="XMLID_276_" class="st0" d="M72.8,238.2c4.5,3.9,9.2,7.6,14.1,10.9c4.9,3.2,10,6.2,15.1,8.7c-4.5-2.5-9.7-5.8-14.8-9.3
			c-5.1-3.6-9.9-7.7-14.1-11.5c-11.7-10.8-21.2-23.9-27.7-38.2C51.5,213.2,60.6,226.8,72.8,238.2z"/>
		<path id="XMLID_275_" class="st0" d="M35.2,144.2c-0.1,1.6-0.2,3.2-0.2,4.9c0,1.6,0,3.3,0,4.9c0.4,15,3.8,30.5,10.4,44.8
			C39,183.4,36,167,36.2,150.6c-0.3,0-0.5-0.7-0.7-1.8C35.3,147.6,35.2,146,35.2,144.2z"/>
	</g>
	<g id="XMLID_146_">
		
			<image style="overflow:visible;opacity:0.5;" width="208" height="172" id="XMLID_1817_" xlink:href="52B8BD12.png"  transform="matrix(1 0 0 1 49 67)">
		</image>
		<g id="XMLID_1157_">
			<g id="XMLID_1597_">
				<path id="XMLID_1698_" class="st1" d="M62.6,124.5l0.8,0.4l-1.6,4l-0.4,5.2v9.4v11.4l0.8-9l1.6-9v-4.4l1.2-9.6l0.4-6.6h0.8
					l-0.4,6.6l-1,8l0.8-3.2l0.8,0.4l-1,3.6l0.8,0.4l-1.4,4.4l-0.2,1.6v6v15.6v17v16.4v7l0.8,5.8h0.2l-0.2,1.4l0.4,2.8l1,7.2l0.6,3.6
					h-0.8l-0.6-3.6l-0.8-6l-0.2,1.8h-0.8v-0.4l-0.4-3.2v-2.6v-4.6l-0.2-3.4l-0.2-2.2L62,181.9l-0.8-12l-0.4,5.2v16.8l1.2,15.6l1,9.8
					l0.4,3.6h-0.8l-0.4-3.6l-1-9.8L60,191.9v-16.8l0.8-12.8l-0.2-7v-11.8v-9.4v-0.6l-1,2.4l-1.8,7.2L57,154.5l-0.2,15.2v15.6
					l0.6,13.2l1.2,10l0.6,6.2l0.4,4.4l0.4,2.8h-0.8l-0.4-2.8l-0.4-4.4l-0.6-6.2l-1.2-10L56,185.3v-15.6l0.2-15.2l0.8-11.4l1.8-7.6
					l1.6-3.4l0.4,0.2l0.2-3.4L62.6,124.5z M73.6,81.7l3-0.8l2.8,0.4l2,2.6v4.2l-0.6,4.6L79,96.9l-4,5l-5.2,5.2h-5.6l-3.6-1.4
					l-2.8-3.8l-0.2-6.8l0.8-7.4l2.6-5.6l3.4-3h3.8l2.8,0.2L73.6,81.7z M60.4,86.7l0.8,0.4l-1,1.8v3.6v3.8l0.4,4.4l1.6,2l1.2,0.4
					l-0.6-1.2l0.6-3.6l2-5.6l0.8-1.6v-1l2.4-4.6l1.2-0.6l2.6-3h0.2l-2-1.8l-2.4-0.2h-3.4l-3,2.6l-2.6,5.6l-0.8,7l0.2,6.4l2.4,3.4
					l3.2,1.4h5.2l5.2-4.8l3.6-5l1.8-4.2l0.6-4.2v-3.8L79,82.1l-2.4-0.4l-2.8,0.6l1.2,3.6v4.4l-0.6,2.8l-0.2,1.4l-1.8,4.6l-3,3.4
					l-0.8,0.6l-1,1.2h-0.8l-0.2,0.2H64l-0.2-0.4l-2-0.6l-2-2.4l-0.4-4.8v-3.8v-3.6L60.4,86.7z M61.6,162.3l0.2,5.8l1,13.8l0.6,5.2
					l-0.2-5.8v-12.8v-13.8l0.2-10.8l-0.4,2l-1.2,13.6L61.6,162.3z M66.2,95.1l-2,3.6l-0.6,3.2l0.8,1.6h2.2l1.6-1l1.2-1.4l2.2-3.2
					l1.6-3.6l0.4-1.4l0.2-2.2v-3.8l-2.4-1.8l-1,0.4L69,87.1l-2,4.2v3.8H66.2z M69.4,127.7l0.8,0.4l-1,2l-0.2,7.2v13v13l0.2-3.6
					l0.6-13l0.8-12l1.4-8.4h0.8l-1.4,8.4l-0.8,12l-0.6,13l-0.8,14.2v10.2l0.6-15l1.4-15.6l1-14l0.6-9.4l0.6-2.6h0.8l-0.6,2.6
					l-0.6,9.4l-1,14l-1.4,15.6l-0.6,15v13.8v5l0.8,7.8l0.4,6.6v2.8h-0.8v-2.8l-0.4-6.4v10v4.8h-0.8v-4.8v-6.2h-0.8v-2.2v-2.4v-7.6
					v-13.4v-0.8l-0.2-5.4v-16.6v-16v-13l0.2-7.2L69.4,127.7z M76.2,142.9H77l-1.8,9l-1.2,9.8v1.4l-0.4,15l-0.2,13.6v10.8v7v3.4h-0.8
					v-3.4v-7v-10.8l0.2-10.4l-0.4,11.8L72,203.5l-0.2,5H71l0.2-5l0.4-10.4l0.4-13.4l0.8-14.6l0.4-3.4l0.2-13.6l1.4-12.2l0.6-8.4
					l1.2-4.2l0.8,0.4l-1.2,3.8l-0.6,8.4l-1.4,12.2v6l0.2-2.2L76.2,142.9z M71.4,84.3l2.8,2v-0.4L73,82.5l-0.2,0.2L71.4,84.3z"/>
				<path id="XMLID_1598_" class="st1" d="M122.6,216.5l-0.4,0.4l-1.4-1.2v2.2H120v-2.2v-0.6l-0.4-0.4v1.2v5l0.6,3.6h-0.8l-0.6-3.6
					v-5v-3.2l-1-2.4l-1-3.8l-0.2,3.8l-0.4,5.6l-0.6,4.2h-0.8l0.6-4.2l0.4-5.6l0.6-7l-0.6-3.8l-1-7l-1-9.6l-1-10l-0.2-4l-0.2,1.8
					l-0.8,12.4l-1.4,10.8v9.2v8.8v5.6v3.4h-0.8v-3.4v-5.6v-8.8v-9.2l1.4-10.8l0.8-12.4l0.6-7.4l-0.2-2l-0.4-12.4v-12.6l0.4-11
					l1.2-9.6l1.6-7.6l1-4.8l1.2-1.8h0.8l0.6,0.6l0.2-1.2l1.2-7.4l1-4l0.6-2l0.8-0.4l2.8,2.2l2,3v-0.2l1.8-1.4h0.8l1.2,2.2l2.2,2.8
					l1.4,2.6l0.4-1.2l1-2.8h0.8l2.8,3.6l1.4,6.2l2.2,8.8l1.4,5.6l0.6,1.4l3,8.4l4.2,9.6l3.6,10.8l4.4,10.8l4.4,11l4,11l3.8,9.6
					l3.2,6.8l1.4,3l1.8-6.4l3.4-8.8l3.6-10l4.2-9l2.8-10.4l3.2-14.2l4.4-14.2l5-11.4l4.6-8.8l4.2-7l1.4-2.4l1.4-2.8l3.4-7.6l3.2-5.6
					l2.8-3.4l2-2.4l2.6-2.2l0.8,0.4l1.8,6v0.4l0.2-0.4l3-3l2.2-1.8l1.8,1.8v5.8l0.4,8.4l0.4,10.4v10.8v7l0.8,4.6l1,10l0.6,11.6v12.2
					v11.8v10l-1,8.6l-1.4,7l-1.4,5.2l-0.6,1.6v2v2.6h-0.8v-2.6v-0.8l-0.4,3l-0.6,2.2l-0.4-0.2l-0.2,0.8l-0.8-0.4l0.8-2.6l0.6-4
					l-1.6-1.4l-0.6,2.8l-0.6,2.8h-0.8l0.6-2.8l0.4-2.2h-0.4v-2.4l-0.2-3.6l-0.2,0.6l-1.6,4.6l-0.6,3l-1.4,2l-0.8-0.4l1.4-1.8H231
					l0.4-2l0.2-2.4l0.4-4.4l0.2-6.2v-7l-0.2-8.8l-0.4-8.6l-0.6-4.8l-1.6-11.6l-0.6-11.2l-1-10.6l-0.8-8.8l-0.4-7l-2.6,5.4l-4,10.2
					l-4.8,12.6l-4,13.2l-4.6,11.4l-4.8,10.4l-4.6,9.6l-4.2,9.4l-3.6,8.4l-3.2,6.6l-0.2,0.2l-0.4,1.8l-2.2,5.6l-1.8,4.4l-0.8,2.4
					l-1.8,3.2h-0.8l-1.6-1l-1.8-1.8l-1.6-3.2l-3.2-3.8l-2.8-4l-3-6.2l-4.4-8.8l-4.4-11.2l-4.4-10.6l-0.6-1.6l-1-2l-5-9.2l-4.6-9.4
					l-4-10.6l-4.2-11l-2-6.4v0.6l-1.2,13l-1.2,12.6l-0.4,12.8v11.8l1,10.4l0.6,8.8l0.6,5.6l0.6,5.2h-0.8l-0.6-5.2l-0.6-5.6l-0.6-8.8
					l-1-10.4v-11.8l0.4-12.8l1.2-12.6l1.2-13l0.4-2.2l-1-3l-0.6-2.6l-3.2-5.8l-0.4,2.6l-1.6,10.4l-1.2,11.2l-0.4,12.4v6.4l0.8,11.8
					l0.6,11l0.2,10.8l0.4,11l0.8,9.4l0.4,3.4l1,2.4l1.2,4.4l-0.8,0.4l-0.8-3l0.4,4.6h-0.8l-0.4-5l-0.6-3.6l-1.2-3.6l-1.2-8.2v2.6
					v3.8l0.8,3.6l1.4,5.2l-0.8,0.4l-1.4-5.6v4.4L122.6,216.5z M117.4,101.9l-0.8,1.8l-1,4.4l-1.6,7.6l-1.2,9.6l-0.4,11v12.6l0.2,7.6
					l1.2-13l1.6-12.6l0.4-2.4l0.2-6.2l1.2-11l1.2-8.6L117.4,101.9z M113,163.3l0.6,9.6l1,10l1,9.6l1,7l0.4-5.6l0.2-10l-0.8-12
					l-0.6-13v-13.2v-11.6l-1.2,9.4l-1.2,13.4L113,163.3z M116.6,128.7v4.8v12.2v13.2l0.6,12.8l0.4-12.2l-0.4-11.6v-14l0.2-8.8
					L116.6,128.7z M116.8,124.5l0.8-3.8l1-9.4l0.6-6l0.4-1.4l-0.6-0.4l-1,7.8l-1.2,11V124.5z M118.6,207.3l-0.8-10v-3.4l-0.6,8.4v1
					l0.2,2L118.6,207.3z M119.8,115.3l-1.4,5.4l-0.4,13.2v7l0.6-9.2l0.8-11.4l0.4-4.4V115.3z M120,190.3l-0.8-10.6l-0.4-10.8
					l-0.2-10.8v-12.2l-0.2,11.6v2v1.8l0.2,12.6v11.8v4.8l0.4,4.2l1,7.8v-9.6V190.3z M120,213.9v-3.6v-3.4l-0.6-2.8l-0.6-5.2l0.6,8.4
					l0.2,5.4L120,213.9z M120,111.7v-2v-4.4l-0.6,6l-0.4,4.4l0.8-3.2L120,111.7z M126,94.3l0.6-1.2l-2-3.4l-2.6-1.8l-0.4,2l-1,3.6
					l-1.2,7.4l-0.2,1.8l0.4,0.4l0.4-1.6l0.8-2.6l1.4-1.6h0.2l0.4-1.6h0.8l0.8,1l1-1.6L126,94.3z M120,179.7v-7.4v-11.6v-6.2
					l-0.2-12.8v-11.4l-0.4,3.6v12v12.2l0.2,10.8L120,179.7z M122,106.3l-0.2,0.4l-0.2,1l-0.4,3.2l-0.6,5v1.4l0.2-1l1.4-5.8l1-1.8
					L122,106.3z M123.8,110.1l-0.2-0.4l-0.6,1.2l-1.4,5.4l-1,6.8v6.4v4.4l1-9.4l1.6-10.4L123.8,110.1z M120.8,103.9l0.4,0.4l0.2-1.4
					l0.2-1.6L120.8,103.9z M120.8,190.3l0.8,10l1.2,8l-0.8-9.2l-0.4-11l-0.2-10.8l-0.6-11v6v10.8V190.3z M121.8,100.3l0.2-1.8
					l-0.4,0.8l-0.4,1.2L121.8,100.3z M122.2,105.3l1.4,2.6v-0.2l0.6-0.6l0.2-2l-0.8-2l-0.6-0.6L122.2,105.3z M122.6,101.1l0.6-1.8
					l-0.4-0.8l-0.4,2.6H122.6z M123.6,98.3l0.2-0.6l0.2-0.2l-0.6-1l-0.2,1L123.6,98.3z M124.6,103.5l0.2-1.2l-1-2l-0.4,1.2l-0.2,0.2
					l1.2,1L124.6,103.5z M125,100.9l0.4-1.8l-0.8-1l-0.4,1.2l0.4,0.6L125,100.9z M124.6,109.9l0.6,1.2l1.8,3.4l-1-4.6l-1-2.8
					L124.6,109.9z M125.8,96.1l-0.8,1.4l0.6,0.6L125.8,96.1z M125.6,106.1l2,2l-1.6-3.2l-0.6-1.2l-0.2,1.4L125.6,106.1z
					 M125.6,102.3l1.2,2.2l3.2,6.6l0.8,1.8l0.4-1.8l-1.4-3.4l-3.2-6.8l-0.6-0.8L125.6,102.3z M128.4,116.9l0.6,1l0.8,1.6l0.2-2.2
					l-1.2-3.6l-1.8-5l-1-1.2l0.8,2L128.4,116.9z M126.8,94.7l-0.6,4.2v0.2l1.2,1.4l3.2,6.8l1,2.4l1.2-5.2l-2-4l-3.6-6.4L126.8,94.7z
					 M129.2,91.3l-1.4,1.2l2,0.2L129.2,91.3z M130.2,93.5l-2.4-0.2l0.2,0.4l3.6,6.4l1.4,3.2l0.2-0.6l0.6-1.8l-1-2.2l-2.4-4.6
					L130.2,93.5z M127.8,108.7l1.8,4.6l0.8,2.4l0.2-1l-1.4-3.2L127.8,108.7z M133.6,129.3l-1.4-2.8l-2.2-4.4v0.8l2.4,7.6l4.2,11
					l4,10.6l4.6,9.4l2.8,5.4l-0.8-2.2l-3.6-9.2l-3.8-9l-3.2-8.4l-2.8-8.4L133.6,129.3z M132.6,125.3l-1.2-3.8l-0.8-2.6l-0.2,1.8
					L132.6,125.3z M134.4,128.9l3.4,6.2l4,10.6l4.4,11.4l4.4,11.6l4.6,10.6l2.8,7.2l1.6,2.8l4.8,8.6l4.2,7.6l1.6,2.8l-1.6-4.6
					l-2.8-8.4l-3.2-9.4l-1.2-3.8l-1.6-3.4l-4.4-8.4l-4-8.8l-4.2-9l-4.4-8.2l-3.6-8.8l-3.4-9l-3.6-7.4l-1.2-3l-0.2,1.2l1.4,3.8
					L134.4,128.9z M131.4,114.5l1.6,4.2l3.6,7.4l3.4,9l3.6,8.8l4.4,8.2l2.8,6l-5-11.2l-4.4-11l-4.4-10.6l-3.8-9.4l-1.4-3.6l-0.2,0.6
					L131.4,114.5z M150,144.3l-0.2-0.2l-4-10.4l-3.6-9.4l-4-8.4l-3.8-7.8l-1-2.4l-1.4,5.2l2,4.6l3.8,9.4l4.4,10.6l4.4,11l5,11.2
					l5.2,11.6l1.6,3.6l-2-6.4l-3.2-10.6l-3.2-11.2V144.3z M142.6,123.1l-3.2-8.8l-3.4-8.2l-1.8-4.2l-0.2,1.2l-0.4,1.4l1.6,3.2
					l3.8,7.8L142.6,123.1z M143.6,118.7l-2.6-5.6l-2.8-6.6l-3.2-5.6l-0.2-0.6l-0.2,0.4l2.2,5l3.4,8.2l3.2,9l3.2,9.4l1,2.2l-0.4-1.4
					l-2.8-10.8L143.6,118.7z M142.6,114.5l-0.4-1.6l-2.2-8.8l-1.4-5.8l-2.2-3.2l-0.8,2.4l-0.6,1.8l0.8,1.2l3.2,5.6l2.8,6.6
					L142.6,114.5z M136,133.3l1.4,4.4l3.2,8.4l3.8,9l3,7.4l-2-5l-4.4-11.4l-4-10.6L136,133.3z M173.6,203.9l0.4,1l1.6,3.4l0.4,0.8
					v-2.2l0.8-4.6l-2-4l-3.2-6.8l-3.8-9.6l-4-11l-4.4-11l-4.4-10.8l-3.6-10.8l-4.2-9.6l-1.4-3.8l2.2,8.2l1.4,5.8l0.8,1.6l3.2,8.2
					l2.8,8.4l3.8,9.4l3.4,9.8l2.8,7.4l3.4,8.4l2.8,8L173.6,203.9z M149.8,169.1l1.4,3.8l2.4,5L149.8,169.1z M162.6,176.7l-1-2.4
					l-3.8-9.6l-4-10.4l-0.8-2.2l1,3.4l3.2,10.6l3,9.6l0.8,2.6l1.2,2.4l5,9.8l3.2,7.2l-1.8-5l-2.8-7.2l-3.2-8.6V176.7z M157.4,186.9
					l-2-3.8l0.8,1.8l4.4,11.2l4.4,8.8l3,6.2l2.8,4l3.2,3.8l1.6,3.2l0.2,0.2l-1-2.6l-0.2-1l-1.2-1l-2-2.2l-2.2-3l-2.6-5l-4-7.8
					l-3.8-9.2L157.4,186.9z M160.8,193.3l2.6,6l4,7.8l2.6,5l2.2,3l1.6,2.2h0.2l-0.8-2.4l-1.4-2.8l-0.4-0.6l-3.6-5.6l-4.2-7.6
					L160.8,193.3z M173.6,212.7l-1.4-4l-2.2-6.8l-2.8-7.2l-2.8-5.8l2.2,6l2.8,8.4l2.4,6.6l0.8,1.6L173.6,212.7z M174.2,208.3
					l-0.4-0.8l-0.8-2.6l-3-5.8l-2-4.6l2.8,7l2.2,6.8l1.4,4.4l1.2,3.2l0.2,0.6l0.6-0.8l0.2-0.2l-0.4-2l-1.4-3.2L174.2,208.3z
					 M174.8,216.1l-0.6-1.2l0.6,2V216.1z M175.4,218.5l0.2-0.2l-0.4-0.2L175.4,218.5z M175.8,219.1h-0.4l0.2,0.2l0.6,2l0.6-1.6h-0.4
					l-0.4-0.8L175.8,219.1z M179,208.1l-1.4-3.8l-0.2-0.6l-0.6,3.2l-0.2,3.6H176l0.6,1.2l0.2,1.4l0.4,0.8l0.4-0.6l0.2-0.6L179,208.1
					z M182.8,214.3h-0.2l-1,1.8l-1.2,2.2l-2.4,0.6l-0.2,0.8l-1.2,2.8H176l1,1l1.6,1.4l1.4-3.2l0.8-2.4l1.8-4.4l0.8-2.2l-0.2,0.2
					L182.8,214.3z M176.4,218.1l0.4,0.8l0.4-1l0.2-0.4l-0.2-0.4L176.4,218.1z M179.2,206.5l1.6-7.6l2-9l3.2-9.4l2.6-8.8l-2,4.4
					l-3.6,10l-3.4,8.8l-1.8,6l-0.2,1.4l0.8,1.6L179.2,206.5z M181.2,212.7l-0.4,1l-2.2,3.2l-0.4,0.8l0.2,0.4l1.6-0.6l0.8-1.8l1-1.8
					L181.2,212.7z M180.6,211.7l-0.4-1l-0.8,3.8l0.6-1.2L180.6,211.7z M181,210.7l0.6-1.8l2-5.6l1.8-8l2.4-8.6l3-10l3.4-9.8l0.6-3.4
					l2.8-8.8l-4,10.6l-4,12.4l-3.4,11.4l-2.6,7.8l-1.2,4.8l-2,7.8L181,210.7z M187.6,178.1l-0.8,2.8l-3.2,9.4l-2,8.6l-1,5.2l1-3.4
					l2.2-8.4l2.8-10L187.6,178.1z M181.6,211.7l0.6,1.4l0.4-0.6l1-3.6l1.2-4.6l1.6-5l2.2-7.2l0.6-1.4l2.8-13.2l0.8-4.2l-1.2,3.8
					l-3,10l-2.4,8.2l-1.8,8.4l-2,5.6L181.6,211.7z M187,200.9l0.2-1.2l-1.6,5l-1.2,4.6l0.8-1.6L187,200.9z M190,191.1l-2.2,9.8
					l-0.8,3.2l1.6-3.4l3.6-8.4l4.2-9.4l4.6-9.6l4.8-10.4l4.6-11.4l4-13.2l4.8-12.6l4-10.2l3.2-6.6v-0.8l-1.4,2.4l-2.8,4.4l-3.2,6
					l-4,8.2l-3.8,10l-4,10.8l-3.6,10l-3.6,9.2l-4.4,8l-3.2,7.8L190,191.1z M189.4,173.7l1.6-5l1.6-6l-0.8,2l-0.4,0.8l-1.2,4.6
					L189.4,173.7z M191,186.3l0.6-1.8l3.2-7.8l4.4-8l3.6-9.2l3.6-10l4-10.8l3.8-10l4-8.2l3.2-6l2.8-4.4l2-3.2l-0.2-4.4l-0.8-4
					l-0.8,1.4l-3.8,7.8l-4,9.4l-4.4,9.4l-4.8,9l-4.6,10.4l-4.2,10.2l-3.6,10.8l-0.2,0.2l-2,10.4L191,186.3z M204.8,123.5l-1.4,3
					l-5,13.8l-4.4,15.2l-1.4,5.6l1.4-3.2l0.4-1.8l3.8-13.2l4-13L204.8,123.5z M193,164.5l4.6-12.4l-3,6.2L193,164.5z M206.8,130.5
					l0.2-0.6l4-9.2l4.4-8l3.4-7.8l3.6-5.8l0.8-1.8l1.2-1.8l-0.8-2.2l-0.8-2l-1.8,0.8l-1.4,1.6l-1.6,3.2l-2.8,5.2l-3.6,7.6l-4.2,9
					l-4.4,11.6l-4,13l-2.8,10l1-2.6l4-8l1-2.8L206.8,130.5z M207.8,114.3l3-6.2l-4.6,8.8l-5,11.4l-3.6,11.4l5-13.6L207.8,114.3z
					 M198.8,153.7l3.2-8.2l4.6-10.4l4.8-9l4.4-9.4l4-9.4l1.2-2.4l-1.8,3l-1.2,2.6l-6.4,14.2l-7.2,13.4l-0.4,0.6l-0.6,1.6l-3.8,10.6
					L198.8,153.7z M214.4,116.5l-1.4,2.6l-4.2,9l2-3.8L214.4,116.5z M226.8,81.7l-1.4,1l-1.4,1.6l-2.4,4.4l-1.8,3.4l0.8-0.8l2.6-0.8
					l1.2,2.4l0.4,1.6l3.6-6l-0.6-3.8L226.8,81.7z M224.8,96.9l-1.4,2.2l-0.2,0.4l-1,2l2.6-4.4V96.9z M227.4,81.3l1.2,3l0.4,3
					l0.2-0.2l3.8-5.2l-0.2-1.2l-1.6-5.6l-2.4,1.8l-1.6,2.4l-2.2,2.6l1.6-1L227.4,81.3z M228.8,92.7l-1,1.6l-2,3.2l1,5l0.2,2.8l0.8-2
					l1.4-2v-1.2L228.8,92.7z M228.8,90.7v-0.4l-0.2-0.6l-1.8,3.2L228.8,90.7z M229.2,102.7l-0.6,1l-1.4,3.2l-0.2,0.2l0.2,0.4l2-3.4
					V102.7z M231.2,155.1l-0.2-3.2l-0.6-11.6l-0.4-10.6l-0.2-9.4l-0.4-10.2v-4.6l-2,3.2l-0.2,0.2l0.6,8.6l0.8,8.8l1,10.6l0.6,11.2
					L231.2,155.1z M229.6,90.1l0.2-0.2l3-3.4l0.4-0.6l-0.2-2.6l-3,4.2l-0.6,1L229.6,90.1z M229.6,91.7l0.4,8.4l1-2.4l1.2-2h0.8
					l0.2,0.6l0.6-1.4l0.2-0.2l-0.4-4.4l-0.8-0.8l-1.6,0.4l-0.8,0.6L229.6,91.7z M230,101.7v1.2l0.4-0.6l1.8-4l0.4-0.8l-0.2-0.8
					l-0.6,1.4l-1.2,2.8L230,101.7z M232.4,164.5l1,6.8l1.2,10l0.4,7.2v2l1.6-7l0.6-9.4v-11.2v-5.4l-0.2-1.6v-5v-6.2l-1.2-10.6
					l-0.4-10l-0.6-8.4l-0.6-8.2l-0.6-5.6l-0.6-3.2l-1.8,4l-1.2,1.6l0.2,5.8l0.4,10.2l0.2,9.4l0.4,10.6l0.6,11.6l0.6,11V164.5z
					 M233.8,181.3l-1-8.2l0.2,8.8v7l-0.2,6.2l-0.4,4.4l1.2-3.4l0.8-2.8l-0.2-4.8L233.8,181.3z M232.6,88.9l0.6-0.2l0.4,0.6v-0.2
					l-0.2-1.2l-0.8,0.8V88.9z M233.4,86.9h-0.2l-0.2,0.4L233.4,86.9z M233.4,97.7l1,4.2l-0.2-3.8l-0.2-1.8L233.4,97.7z M240.6,114.3
					l0.2,1.4v-2.6v-10.8l-0.4-10.4l-0.4-8.4v-5.4l-1-1.4l-1.8,1.4l-2.6,3l-0.8,1.2l0.2,2.8l1-0.8l1.6-2.2l0.8,0.4l0.4,3.2l0.2,6.6
					l1.4,9l0.8,9L240.6,114.3z M236.2,85.7l0.2,4.2h0.2l0.6,4.8v1.8l1.2,4.2l0.2,1.4v-0.8l-1.4-9l-0.2-6.6l-0.2-2.4l-1.4,1.4
					l-1.2,1.4v0.2l1.4-1L236.2,85.7z M235.6,86.3l-1.4,1l0.2,1.8v1l1,1l0.4-1L235.6,86.3z M235.2,92.1l-0.2-0.2l-0.4-0.6v1.8
					l0.4-0.8L235.2,92.1z M236.2,95.9l-0.2-0.6l-0.6-2l-0.6,1.4l0.2,3.4l0.6,9.4l0.6,9.4l0.6,10l0.6,7.2l-0.2-4.4l-0.2-10.6l-0.4-9
					l-0.2-8.8v-3.4L236.2,95.9z M237.4,183.5l-1.6,7.4l-0.6,2.6v1.2l0.4,4.8l1-5l0.6-8.8L237.4,183.5z M236.2,200.7l0.2-0.2l1.4,1.4
					l0.8-5.6l0.2-0.6l-0.2-4.8l-0.2-8.2l-0.4,3l-0.6,8.8L236.2,200.7z M237.4,99.9l0.4,5.2l0.2,7.8l0.6,8.8l1.4,8l0.8,8.8v-1.6
					v-12.2v-0.8l-0.4-3.8l-0.6-5.6l-1-7.2l-1.2-6.6L237.4,99.9z M238,176.7v-2.6l-0.6,9.2L238,176.7z M238.8,176.7l0.2,3l0.4,10.6
					l0.6-4.6l0.4-2.2l0.4-6.8v-13.6v-13.6v-5.6l-0.8-5.4l-0.8-8.8l-1.4-7.6l0.2,7.6l0.6,12l0.4,11.8v11v11.2L238.8,176.7z
					 M238.2,161.9v-8.4l-0.4-11.8v3v6.2l0.2,6.6L238.2,161.9z M239.6,196.7v3v0.4l1.2-4.2l1.4-7l1-8.6v-10v-11.8v-12.2l-0.6-11.6
					l-0.4-3.6l0.2,8.6l0.4,11v6.8l0.2,10v8.2v6.2l-0.8,5.4l-1.6,4.6l-0.6,2.8L239.6,196.7z M242.2,175.9l-1,7.6l-0.4,4.4l-0.2,1.8
					l0.8-2.4l0.8-5.4V175.9z M241.8,145.1l-0.2-5.4v4.2L241.8,145.1z M242,157.5l-0.4-6.4v12v11.4l0.4-12V157.5z"/>
			</g>
		</g>
	</g>
</g>
</svg>
